<svg xmlns="http://www.w3.org/2000/svg" viewBox="0 0 500 500"><g id="freepik--Table--inject-289"><polygon points="15.88 445.46 68.66 409.82 324.41 408.6 336.11 446 15.88 445.46" style="fill:#455a64"></polygon><polygon points="335.45 460.06 15.35 459.83 15.35 444.76 335.59 445.76 335.45 460.06" style="fill:#455a64"></polygon><path d="M327.6,445.68c0,.14-69.13.23-154.37.19s-154.38-.19-154.38-.34,69.11-.23,154.38-.19S327.6,445.53,327.6,445.68Z" style="fill:#263238"></path></g><g id="freepik--Drink--inject-289"><path d="M89.53,439c-8.34,3.63-16.38,4-24,0l-5.57-46.73H94.59Z" style="fill:#6f4439"></path><path d="M92.3,389.57l-1-3.34L65.15,383a1.53,1.53,0,0,0-1.62,1l-1.89,5.51H58.3v6.05c13.11,2.31,25.66,2.44,37.55,0v-6.05Z" style="fill:#e0e0e0"></path><path d="M92.3,389.57a.68.68,0,0,1,.24,0l.69,0,2.62,0h.09v.1c0,1.56,0,3.6.06,6.05v.12l-.12,0a87.59,87.59,0,0,1-16.12,1.84A110.12,110.12,0,0,1,58.4,395.9l-.14,0-.22,0v-6.53h3.6l-.24.17c.63-1.84,1.26-3.64,1.86-5.4a1.8,1.8,0,0,1,1-1.15,1.85,1.85,0,0,1,.77-.14c.26,0,.46.06.69.08l2.64.33L78,384.41l13.3,1.72h.06l0,.06c.3,1.05.54,1.88.72,2.48.07.26.13.48.18.65a1.52,1.52,0,0,1,0,.24.78.78,0,0,1-.08-.2l-.22-.62c-.21-.61-.48-1.43-.84-2.49l.08.07L77.92,384.8l-9.59-1.13-2.64-.32a2.26,2.26,0,0,0-1.22,0,1.29,1.29,0,0,0-.74.86l-1.85,5.41-.06.17H58.3l.26-.26v6.05l-.21-.26.14,0a112.7,112.7,0,0,0,21.26,1.77,91.46,91.46,0,0,0,16.06-1.69l-.12.16c0-2.45,0-4.49.06-6.05l.1.1-2.67-.06-.67,0Z" style="fill:#263238"></path><path d="M92,423.52c-9.06,1.46-19,1.25-29.63,0l-1.44-14.17a146.91,146.91,0,0,0,32.81,0Z" style="fill:#ae7461"></path><path d="M75.31,413.9a3.14,3.14,0,0,0-1.22,4l.94,2a3.14,3.14,0,0,0,3.86,1.65Z" style="fill:#6f4439"></path><path d="M75.94,413.61l3.58,7.7a3.16,3.16,0,0,0,1.22-4l-.94-2A3.15,3.15,0,0,0,75.94,413.61Z" style="fill:#6f4439"></path><path d="M92.59,389.66a5.68,5.68,0,0,1-1.18.35c-.76.2-1.88.44-3.28.69a63.25,63.25,0,0,1-22.07,0c-1.39-.26-2.51-.5-3.28-.71a6.32,6.32,0,0,1-1.18-.36,5.64,5.64,0,0,1,1.22.16c.78.15,1.91.34,3.3.54a75.22,75.22,0,0,0,21.95,0c1.4-.2,2.53-.39,3.3-.53A5.26,5.26,0,0,1,92.59,389.66Z" style="fill:#263238"></path></g><g id="freepik--Device--inject-289"><path d="M110.4,320.16s-5.71,1.23-6.7,5.29,8,101,8.31,103.35c.57,3.71,3.7,8.43,10.74,8.17,6.15-.22,89.86,0,110.93,0,2.81,0,4.49-2.38,4.86-5.22h0l-103.65-6.12Z" style="fill:#e0e0e0"></path><path d="M107.8,323.4l9,104.54a3.39,3.39,0,0,0,3.31,3.05l118.45.53-22.76-22.58-76.94-.54-8.23-81.91a2.57,2.57,0,0,0-2-2.23l-17.24-4A3,3,0,0,0,107.8,323.4Z" style="fill:#e0e0e0"></path><path d="M107.8,323.4a2.45,2.45,0,0,1,0-.51,2.78,2.78,0,0,1,.46-1.41,3,3,0,0,1,2-1.33,3.76,3.76,0,0,1,1.58.13l1.75.4,9.15,2.1,5.8,1.34a2.72,2.72,0,0,1,2.19,2.33c.11,1.12.23,2.27.35,3.45,1.93,19,4.68,46,8,78.48l-.22-.21,76.95.51h.1l.08.08,22.75,22.57.45.45h-.63l-5.25,0-86.83-.41-19.5-.1-4.7,0c-.78,0-1.54,0-2.34,0a3.6,3.6,0,0,1-2.22-.95,3.55,3.55,0,0,1-1.11-2.12c-.09-.77-.14-1.51-.21-2.27-.12-1.5-.25-3-.38-4.47-1-11.82-1.94-22.84-2.79-32.89-1.69-20.11-3.06-36.38-4-47.63-.46-5.62-.82-10-1.06-12.95-.12-1.48-.2-2.6-.26-3.37s-.08-1.15-.08-1.15.06.38.13,1.14.18,1.9.31,3.37c.27,3,.66,7.33,1.16,12.94,1,11.25,2.42,27.52,4.18,47.61.87,10.06,1.83,21.07,2.85,32.89q.19,2.22.39,4.47c.07.75.12,1.52.2,2.25a3.28,3.28,0,0,0,1,1.86,3.2,3.2,0,0,0,2,.82c.75,0,1.54,0,2.31,0l4.71,0,19.5.08,86.82.37,5.25,0-.19.44L215.6,409.12l.18.08-76.94-.58h-.2l0-.2c-3.23-32.48-5.91-59.54-7.79-78.49-.12-1.18-.24-2.33-.35-3.45a2.48,2.48,0,0,0-2-2.14l-5.8-1.36-9.13-2.17-1.75-.41a3.6,3.6,0,0,0-1.53-.15,3,3,0,0,0-2,1.27,2.8,2.8,0,0,0-.48,1.38C107.79,323.23,107.82,323.4,107.8,323.4Z" style="fill:#263238"></path><polygon points="194.5 428.8 205.51 428.8 191.59 410.75 185.06 410.75 194.5 428.8" style="fill:#263238"></polygon><path d="M111.87,328.12,120.28,419,136,406.5,129.2,330a1.32,1.32,0,0,0-1.13-1.2l-14.69-2.1A1.33,1.33,0,0,0,111.87,328.12Z" style="fill:#263238"></path><polygon points="128.7 428.8 140.06 428.8 151.61 410.75 145.07 410.75 128.7 428.8" style="fill:#263238"></polygon><polygon points="142.65 428.8 153.66 428.8 159.69 410.75 153.15 410.75 142.65 428.8" style="fill:#263238"></polygon><polygon points="156.12 428.8 167.13 428.8 167.72 410.75 161.19 410.75 156.12 428.8" style="fill:#263238"></polygon><polygon points="168.62 428.8 179.63 428.8 175.56 410.75 169.03 410.75 168.62 428.8" style="fill:#263238"></polygon><polygon points="181.64 428.8 192.65 428.8 183.68 410.75 177.15 410.75 181.64 428.8" style="fill:#263238"></polygon><path d="M205,425.28c0,.09-16.79.16-37.5.16s-37.49-.07-37.49-.16,16.78-.15,37.49-.15S205,425.2,205,425.28Z" style="fill:#e0e0e0"></path><path d="M203,422c0,.09-15.94.16-35.61.16s-35.61-.07-35.61-.16,15.94-.15,35.61-.15S203,421.89,203,422Z" style="fill:#e0e0e0"></path><path d="M203,419c0,.17-15,.31-33.5.31S136,419.14,136,419s15-.31,33.51-.31S203,418.8,203,419Z" style="fill:#e0e0e0"></path><path d="M203.42,416.23c0,.17-14.68.31-32.78.31s-32.79-.14-32.79-.31,14.68-.32,32.79-.32S203.42,416.05,203.42,416.23Z" style="fill:#e0e0e0"></path><path d="M205,414.23c0,.17-14.78.31-33,.31s-33-.14-33-.31,14.77-.32,33-.32S205,414.05,205,414.23Z" style="fill:#e0e0e0"></path><path d="M206.58,412.13c0,.18-15.05.32-33.61.32s-33.62-.14-33.62-.32,15-.31,33.62-.31S206.58,412,206.58,412.13Z" style="fill:#e0e0e0"></path><path d="M118.44,427.94,139,408.75" style="fill:#e0e0e0"></path><path d="M139,408.75c.1.1-4.42,4.48-10.08,9.78s-10.34,9.52-10.44,9.41,4.41-4.48,10.08-9.79S138.86,408.64,139,408.75Z" style="fill:#263238"></path></g><g id="freepik--Character--inject-289"><path d="M478.51,337.24s-1-10.62-27.46-17.41c-12.77-3.28-43.26-4.85-46.71,15-.11.64-15.18,125.27-15.18,125.27h56.37Z" style="fill:#455a64"></path><path d="M469.58,460.06h-26L452.26,338c.64-5.94,6.79-10.23,13.74-9.57l2.33.22c6.94.66,11.35,7.35,11.15,15Z" style="fill:#455a64"></path><path d="M445.53,455.67c-.15,0,1.69-24.07,4.1-53.72s4.48-53.69,4.62-53.68-1.69,24.06-4.1,53.72S445.67,455.68,445.53,455.67Z" style="fill:#263238"></path><path d="M473.52,331.47a27.2,27.2,0,0,0-3.66-.86,13.71,13.71,0,0,0-14.51,8.32,28.11,28.11,0,0,0-1.1,3.59,3.45,3.45,0,0,1,.05-1,12,12,0,0,1,.71-2.71,13.52,13.52,0,0,1,14.9-8.54,11.85,11.85,0,0,1,2.7.75A3.38,3.38,0,0,1,473.52,331.47Z" style="fill:#263238"></path><path d="M391.41,178.81c.27-7.15-4.58-8.11-8.31-7.29a12.65,12.65,0,0,0-15.55.85,11.25,11.25,0,0,0-16.64,9.79,9.4,9.4,0,0,0-7.64,16.12,9,9,0,0,0,4.43,17.43l43.86-29.21C394.19,183.73,391.27,182.63,391.41,178.81Z" style="fill:#263238"></path><path d="M346.43,217a38.34,38.34,0,0,1,36.94-36.59l2-.07c21.43.49,33,19,31.91,40.38l-.56,71.34-.14,13.55-49,11.65-.5-28.24s-20.68-2.46-21.66-23C344.91,256.1,345.6,235.58,346.43,217Z" style="fill:#ae7461"></path><path d="M366.88,289a49.94,49.94,0,0,0,26.66-8.84s-5.81,15-26.39,13.9Z" style="fill:#6f4439"></path><path d="M352.42,237.76a2.93,2.93,0,0,0,2.93,2.86,2.81,2.81,0,0,0,2.93-2.76,2.93,2.93,0,0,0-2.93-2.86A2.8,2.8,0,0,0,352.42,237.76Z" style="fill:#263238"></path><path d="M351,228c.37.36,2.54-1.36,5.7-1.46s5.53,1.39,5.86,1c.16-.18-.23-.86-1.27-1.55a8,8,0,0,0-4.71-1.27,7.68,7.68,0,0,0-4.52,1.64C351.13,227.11,350.83,227.81,351,228Z" style="fill:#263238"></path><path d="M377.81,237.11a2.94,2.94,0,0,0,2.94,2.86,2.81,2.81,0,0,0,2.93-2.76,2.93,2.93,0,0,0-2.93-2.86A2.81,2.81,0,0,0,377.81,237.11Z" style="fill:#263238"></path><path d="M381.23,226.46c.37.37,2.54-1.35,5.7-1.46s5.53,1.4,5.86,1c.16-.18-.23-.86-1.27-1.56a8.1,8.1,0,0,0-4.71-1.27,7.8,7.8,0,0,0-4.52,1.64C381.35,225.59,381,226.3,381.23,226.46Z" style="fill:#263238"></path><path d="M371.65,250.25c0-.18-2-.45-5.16-.75-.81-.05-1.58-.18-1.74-.73a4.1,4.1,0,0,1,.46-2.41q1-3,2.16-6.23c3-8.86,5.15-16.14,4.79-16.26s-3.08,7-6.08,15.84L364,246a4.71,4.71,0,0,0-.31,3.18,2,2,0,0,0,1.37,1.13,5.51,5.51,0,0,0,1.38.14C369.66,250.48,371.65,250.43,371.65,250.25Z" style="fill:#263238"></path><path d="M381,252.1c-.52,0-.4,3.42-3.25,6s-6.51,2.29-6.52,2.77c0,.22.83.64,2.38.62a8.5,8.5,0,0,0,5.45-2.12,7.43,7.43,0,0,0,2.51-5C381.67,252.91,381.26,252.07,381,252.1Z" style="fill:#263238"></path><path d="M380.86,217.44c.41.8,3.1,0,6.41-.09s6.09.52,6.4-.3c.13-.4-.45-1.13-1.63-1.78a9.85,9.85,0,0,0-5-1.12,9.58,9.58,0,0,0-4.81,1.41C381.18,216.29,380.68,217.05,380.86,217.44Z" style="fill:#263238"></path><path d="M351.42,219.28c.53.75,2.74.1,5.35.19s4.81.71,5.36,0c.24-.35-.08-1.09-1-1.81a7.76,7.76,0,0,0-8.63-.14C351.53,218.2,351.19,218.92,351.42,219.28Z" style="fill:#263238"></path><path d="M348.07,207.52s5-13.07,11.07-16.29c7.39-3.91,10.92,4.23,18,2s14.14-6,21.66-.72c8.22,5.77,4.62,10.16,5.44,19.26,3.32,36.92,10.45,47.13,11.75,29.64.14-1.91,5.39-3.62,5.88-11.71.65-10.49.6-23.2-2-30.54-2.19-6.18-5.91-10.38-12.47-14.92-10.36-7.16-24.23-6.83-33.62-5.54S346.64,191.43,348.07,207.52Z" style="fill:#263238"></path><path d="M414.67,240.87a5.58,5.58,0,0,1,5.83-5.59c3.85.23,8.2,2.25,8.22,10.19.06,14.07-14.08,11.22-14.11,10.81S414.64,246.76,414.67,240.87Z" style="fill:#ae7461"></path><path d="M417.65,251c.07,0,.25.17.67.36a2.49,2.49,0,0,0,1.83,0c1.48-.55,2.73-2.92,2.78-5.45a8.06,8.06,0,0,0-.69-3.51,2.86,2.86,0,0,0-1.86-1.88,1.24,1.24,0,0,0-1.44.68c-.19.39-.1.67-.17.7s-.3-.24-.19-.82a1.51,1.51,0,0,1,.55-.88,1.79,1.79,0,0,1,1.35-.36,3.42,3.42,0,0,1,2.57,2.17,8.29,8.29,0,0,1,.86,3.92c-.07,2.83-1.52,5.49-3.55,6.09a2.63,2.63,0,0,1-2.24-.37C417.68,251.32,417.61,251,417.65,251Z" style="fill:#6f4439"></path><path d="M413.43,213.65c-1.78,1.31-3.67,2.66-5.86,3s-4.75-.88-5.2-3.05c-.2-1,0-2.11-.67-2.84-.8-.88-2.21-.55-3.38-.38a9,9,0,0,1-9.54-6.1c-1,1.6-3.42,1.61-5,.65s-2.69-2.58-4-3.95-3.06-2.58-4.91-2.25c-1,.19-2,.84-3,.79-1.86-.1-2.83-2.23-3.18-4s-.64-4-2.23-4.9-3.35-.27-5,0-3.89,0-4.39-1.65a3.31,3.31,0,0,1,.54-2.57,9.09,9.09,0,0,1,10.62-3.83,12.35,12.35,0,0,1,22.59-3.2,12.54,12.54,0,0,1,20.18,3.85A9.08,9.08,0,0,1,421.62,196c2.58,1.36,4.83,3.79,5,6.7s-2.58,5.9-5.41,5.24a5,5,0,0,1-8.52,5.32" style="fill:#263238"></path><path d="M422.23,207.88a3.4,3.4,0,0,1-.78,2.73,4.48,4.48,0,0,1-2.76,1.78,4.85,4.85,0,0,1-4.05-1l.59-.11a13.91,13.91,0,0,1-2.68,3.61,8,8,0,0,1-2.5,1.68,6.26,6.26,0,0,1-7-1.82,8,8,0,0,1-1.24-2.88,2.7,2.7,0,0,1-.15-1.13c.06,0,.19.36.45,1a9.27,9.27,0,0,0,1.39,2.63c1.41,2,5.78,2.85,8.46-.1a14.24,14.24,0,0,0,2.55-3.38l.24-.42.36.31a4.24,4.24,0,0,0,3.42,1,4.16,4.16,0,0,0,2.5-1.43A7,7,0,0,0,422.23,207.88Z" style="fill:#455a64"></path><path d="M256,392s-26.53-.79-28.12-1.29a16.86,16.86,0,0,0-7.35,0c-1.89.6-9.44,3.28-9.44,3.28l-16,4.27S179,408.75,179.32,410.86s2.09,3.55,5,2.46,17.42-8.65,17.42-8.65l16-1.69s21.82,7.84,26.23,7.45,15.7-2.3,15.7-2.3,1.59-11.31.79-13.1S256,392,256,392Z" style="fill:#ae7461"></path><path d="M180.47,420.22s13.45-14.41,17.17-16.35,24.46-5.35,24.46-5.35,6.64-2.75,9.07-1.78,28.18,4.86,29.31,5-5.5,22.68-5.5,22.68a52.51,52.51,0,0,1-19.28-.81c-10.36-2.43-13.93-5.67-13.93-5.67l-10.34-2.72-6.34,2.41s-1.13,9.38-5.67,8.89l-2.1-1.46,1.62-10.36-6.64,2.75s-5.19,7.78-9.07,6.64S180.47,420.22,180.47,420.22Z" style="fill:#ae7461"></path><path d="M180.47,420.22a3.48,3.48,0,0,0-.1,1.13,2.5,2.5,0,0,0,.5,1.26,3.69,3.69,0,0,0,1.52,1.11,3.83,3.83,0,0,0,2.33.34,7.17,7.17,0,0,0,2.58-1.31,23.65,23.65,0,0,0,4.88-5.36l0,0,0,0,6.63-2.77.27-.12,0,.29c-.48,3.12-1,6.62-1.59,10.37l-.08-.18,2.1,1.45-.09,0a3,3,0,0,0,2.34-.85,7,7,0,0,0,1.55-2.25,20.58,20.58,0,0,0,1.55-5.61l0-.13.12-.05,6.32-2.42.07,0,.07,0,10.36,2.7,0,0,.06,0a27,27,0,0,0,7.16,3.65,60.7,60.7,0,0,0,8.15,2.27,53,53,0,0,0,8.7,1,49.35,49.35,0,0,0,9-.5l-.2.18c.46-1.59,1-3.29,1.44-5,1.43-5.1,2.86-10.11,3.89-15.07a17.12,17.12,0,0,0,.29-1.84,2.94,2.94,0,0,0,0-.42c0-.07-.06-.1,0,0h0l-.12,0-.93-.14-3.7-.56-7.25-1.14c-4.75-.77-9.36-1.53-13.79-2.37-1.1-.23-2.18-.42-3.28-.75a6.06,6.06,0,0,0-3.11-.1,31.83,31.83,0,0,0-6,1.8h-.05c-7.24,1.21-13.87,2.41-19.66,3.79a36,36,0,0,0-4.11,1.21,12.46,12.46,0,0,0-3.27,2.21c-2,1.66-3.66,3.3-5.19,4.78-3.06,3-5.38,5.38-7,7l-1.81,1.87c-.42.42-.64.62-.64.62s.19-.23.59-.67l1.76-1.91c1.57-1.65,3.87-4.09,6.9-7.09,1.52-1.49,3.21-3.15,5.17-4.83.49-.42,1-.85,1.54-1.25a7.62,7.62,0,0,1,1.8-1,36.69,36.69,0,0,1,4.16-1.24c5.8-1.42,12.42-2.64,19.67-3.89l-.05,0a32.38,32.38,0,0,1,6.09-1.85,6.59,6.59,0,0,1,3.35.11c1,.31,2.12.5,3.21.73,4.41.83,9,1.57,13.78,2.33l7.25,1.13,3.7.57.93.14h.2l.11,0a.52.52,0,0,1,.23.4,3,3,0,0,1,0,.52,16.89,16.89,0,0,1-.29,1.91c-1,5-2.47,10-3.9,15.11-.49,1.72-1,3.43-1.44,5l0,.16-.16,0a48.88,48.88,0,0,1-9.09.5,51.87,51.87,0,0,1-8.78-1,58.89,58.89,0,0,1-8.22-2.3,37.22,37.22,0,0,1-3.83-1.61,18.67,18.67,0,0,1-3.49-2.14l.1.05-10.34-2.73h.14l-6.34,2.41.14-.18a20.7,20.7,0,0,1-1.61,5.74,7.23,7.23,0,0,1-1.65,2.37,3.44,3.44,0,0,1-2.65.95h-.05l0,0-2.1-1.46-.1-.07,0-.12c.59-3.74,1.15-7.24,1.64-10.36l.23.18-6.65,2.73.06-.05a23.57,23.57,0,0,1-5,5.38,7.37,7.37,0,0,1-2.67,1.31,3.93,3.93,0,0,1-2.43-.38,3.69,3.69,0,0,1-1.55-1.18,2.54,2.54,0,0,1-.49-1.32A2.25,2.25,0,0,1,180.47,420.22Z" style="fill:#6f4439"></path><path d="M221.18,408a4.39,4.39,0,0,1-1,0c-.65-.05-1.59-.14-2.76-.26l-4.08-.46-1.18-.13a3.54,3.54,0,0,0-1.17,0,24.57,24.57,0,0,0-2.52.52c-3.37,1-6.75,1.63-8,3.63a7.65,7.65,0,0,0-1.2,2.42c-.18.62-.23,1-.26,1a2.21,2.21,0,0,1,.07-1,6.71,6.71,0,0,1,1.1-2.58,6.06,6.06,0,0,1,1.37-1.41,7.6,7.6,0,0,1,2-1,50.5,50.5,0,0,1,4.83-1.49,22.31,22.31,0,0,1,2.58-.53,4.36,4.36,0,0,1,1.3,0l1.17.16,4.08.56c1.16.17,2.09.32,2.74.43A3.39,3.39,0,0,1,221.18,408Z" style="fill:#6f4439"></path><path d="M185.08,415.43a9.37,9.37,0,0,1,1.11-1.12c.75-.69,1.85-1.66,3.24-2.82s3.08-2.52,5-3.93c1-.7,2-1.42,3.14-2.1a18.89,18.89,0,0,1,1.79-.94,15.83,15.83,0,0,1,2-.63,104.79,104.79,0,0,1,14-2.4l4.26-.53a9.58,9.58,0,0,1,1.57-.13,8.49,8.49,0,0,1-1.54.33l-4.23.69c-3.57.63-8.58,1.07-13.9,2.54a15.24,15.24,0,0,0-1.91.61,17.86,17.86,0,0,0-1.74.9c-1.11.66-2.14,1.36-3.12,2.05-2,1.38-3.65,2.7-5.07,3.82l-3.34,2.69A10.16,10.16,0,0,1,185.08,415.43Z" style="fill:#6f4439"></path><path d="M352.61,321.5a154.63,154.63,0,0,0-12.67,21.38c-4.81,10-20.35,44.05-20.35,44.05l-63.33,3.32.94,24.47s61.16,21.79,74.85,17.58,28.28-20,28.28-20l6.55-103.2S361.45,308.09,352.61,321.5Z" style="fill:#407BFF"></path><path d="M365.85,309.35s-16.24,36.83-18.61,52.43c-4.71,31-6.29,50.35-6.29,50.35l-5.52,47.93H443.58s3.58-88.83,1.28-118.61c-1.72-22.32-18.82-36.22-25.81-43.85-.42-.46-2.34-6.71-2.34-6.71l-50.4,12.91Z" style="fill:#407BFF"></path><path d="M360.62,314.94a1.35,1.35,0,0,1-.12.35c-.11.25-.24.59-.42,1l-1.61,3.85c-1.39,3.34-3.4,8.19-5.42,14.35a170.85,170.85,0,0,0-5.59,22c-1.61,8.41-2.91,17.74-4,27.57-2,19.68-3.79,37.49-5.1,50.41-.67,6.43-1.21,11.64-1.59,15.27-.2,1.78-.35,3.17-.46,4.15-.06.46-.1.81-.13,1.08a2.41,2.41,0,0,1-.07.37,2.58,2.58,0,0,1,0-.37c0-.27.05-.63.08-1.09.09-1,.21-2.37.36-4.16.34-3.64.83-8.85,1.43-15.29,1.25-12.9,2.9-30.74,5-50.43,1.08-9.83,2.4-19.18,4-27.6a166.47,166.47,0,0,1,5.71-22.06c2.07-6.15,4.13-11,5.58-14.31.72-1.67,1.31-2.95,1.71-3.81.19-.42.34-.74.46-1A3,3,0,0,1,360.62,314.94Z" style="fill:#263238"></path><g style="opacity:0.30000000000000004"><path d="M416.81,372.92c-1-9.81-5.41-19.66-13.48-25.32l-65.94,94.16c11.64,6.28,24.57,12.76,37.5,10,7-1.49,13.14-5.59,18.16-10.64,10.43-10.49,16.09-24.78,20.06-39C415.76,392.6,417.8,382.73,416.81,372.92Z"></path></g><path d="M424.28,361.55c-8.21,29.07-26.7,64.54-32.38,71.67a44.09,44.09,0,0,1-34.5,16.93c-7.44,0-70.32-12.25-89-15.91a8,8,0,0,1-6.27-6.19l-.16-.77L253.62,425l4.47-22.51.89-1.25,89.93,2.83h0l26.16-72.87c.5-.83,8.05-25.28,28.54-24.17" style="fill:#407BFF"></path><path d="M403.61,307.05h-.68a18.78,18.78,0,0,0-2,.05,22.55,22.55,0,0,0-7.56,1.79,27.44,27.44,0,0,0-9.87,7.61,49.52,49.52,0,0,0-8.3,14.79v0c-6.61,18.46-15.58,43.54-26.09,72.89l-.05.16h-.17L259,401.52l.22-.11-.89,1.25,0-.1c-1.29,6.51-2.66,13.43-4,20.43l-.41,2.08-.19-.31,8.39,2.26.16.05,0,.15a8.17,8.17,0,0,0,2.47,4.85,7.77,7.77,0,0,0,2.3,1.47,13.78,13.78,0,0,0,2.69.69l11,2.15,21.5,4.13c14.09,2.67,27.66,5.21,40.61,7.4,3.24.54,6.44,1,9.6,1.5,1.58.2,3.16.42,4.71.49a38.07,38.07,0,0,0,4.66-.23,44.22,44.22,0,0,0,17-5.45,45.38,45.38,0,0,0,12.69-10.82,61.9,61.9,0,0,0,4.36-6.58c1.31-2.23,2.55-4.44,3.72-6.61a355.43,355.43,0,0,0,19.28-42.49c1.9-5.16,3.26-9.21,4.12-12,.42-1.37.75-2.42,1-3.14s.34-1.06.34-1.06-.09.36-.29,1.07l-.92,3.16c-.83,2.77-2.16,6.83-4,12a348.71,348.71,0,0,1-19.16,42.59c-1.16,2.18-2.4,4.39-3.7,6.63a60.41,60.41,0,0,1-4.39,6.64A45.59,45.59,0,0,1,379,444.59a44.62,44.62,0,0,1-17.15,5.53,37,37,0,0,1-4.72.24c-1.6-.07-3.17-.29-4.76-.49-3.17-.45-6.38-1-9.62-1.49-13-2.18-26.53-4.71-40.63-7.37l-21.5-4.13-11-2.14a14.05,14.05,0,0,1-2.78-.72,8.06,8.06,0,0,1-2.46-1.57,8.7,8.7,0,0,1-2.63-5.12l.19.2-8.39-2.26-.23-.07,0-.23c.13-.66.28-1.37.42-2.08,1.39-7,2.76-13.92,4-20.43v-.06l0,0,.89-1.25.08-.11H259l89.93,2.86-.22.15,26.24-72.84v0a49.22,49.22,0,0,1,8.38-14.78,27.37,27.37,0,0,1,10-7.61,22.3,22.3,0,0,1,7.61-1.73,14.94,14.94,0,0,1,2,0Z" style="fill:#263238"></path><path d="M329.1,398.32a33.15,33.15,0,0,0-4.34-6.36,32.72,32.72,0,0,0-6-4.78,6.94,6.94,0,0,1,2.09.95,19.19,19.19,0,0,1,4.33,3.47,19.46,19.46,0,0,1,3.16,4.56A7.47,7.47,0,0,1,329.1,398.32Z" style="fill:#263238"></path><path d="M359.79,421.72c-.09,0-.27-1.15-.79-3a28.47,28.47,0,0,0-2.95-6.72,27.91,27.91,0,0,0-4.63-5.69c-1.37-1.3-2.33-2-2.28-2.06a2.66,2.66,0,0,1,.73.41,18,18,0,0,1,1.8,1.37,24.36,24.36,0,0,1,7.69,12.6,15.24,15.24,0,0,1,.39,2.23A2.77,2.77,0,0,1,359.79,421.72Z" style="fill:#263238"></path><g style="opacity:0.30000000000000004"><path d="M335.8,403.52l5.23.2c.85-20.55,5.08-41,8.7-61.27C340.5,361.31,338.08,382.66,335.8,403.52Z"></path></g><path d="M417.3,297.6a1.81,1.81,0,0,1-.5.17l-1.44.4-5.3,1.41c-4.47,1.19-10.64,2.89-17.5,4.62s-13.13,3.07-17.71,3.82c-2.29.38-4.15.65-5.44.78l-1.49.15a1.86,1.86,0,0,1-.52,0,2,2,0,0,1,.51-.12l1.47-.25c1.28-.19,3.13-.52,5.4-.94,4.55-.84,10.8-2.23,17.65-4s13-3.38,17.54-4.48c2.25-.55,4.08-1,5.35-1.25l1.46-.3A2,2,0,0,1,417.3,297.6Z" style="fill:#263238"></path></g></svg>