<svg width="24" height="24" viewBox="0 0 24 24" fill="none" xmlns="http://www.w3.org/2000/svg">
<path d="M23.28 4.92003L12.48 0.120029C12.12 2.93013e-05 11.88 2.93013e-05 11.52 0.120029L0.72 4.92003C0.24 5.04003 0 5.52003 0 6.00003C0 6.48003 0.24 6.96003 0.72 7.08003L11.52 11.88C11.64 12 11.88 12 12 12C12.12 12 12.36 12 12.48 11.88L23.28 7.08003C23.76 6.96003 24 6.48003 24 6.00003C24 5.52003 23.76 5.04003 23.28 4.92003Z" fill="black"/>
<path d="M12 18C11.88 18 11.64 18 11.52 17.88L0.720045 13.08C0.120045 12.84 -0.119955 12.12 0.120045 11.52C0.360045 10.92 1.08004 10.68 1.68005 10.92L12 15.48L22.32 10.92C22.92 10.68 23.64 10.92 23.88 11.52C24.12 12.12 23.88 12.84 23.28 13.08L12.48 17.88C12.36 18 12.12 18 12 18Z" fill="black"/>
<path d="M12 24C11.88 24 11.64 24 11.52 23.88L0.720045 19.08C0.120045 18.84 -0.119955 18.12 0.120045 17.52C0.360045 16.92 1.08004 16.68 1.68005 16.92L12 21.48L22.32 16.92C22.92 16.68 23.64 16.92 23.88 17.52C24.12 18.12 23.88 18.84 23.28 19.08L12.48 23.88C12.36 24 12.12 24 12 24Z" fill="black"/>
</svg>
